<svg width="1024" height="1024" xmlns="http://www.w3.org/2000/svg" style="vector-effect: non-scaling-stroke;" stroke="null" preserveAspectRatio="xMidYMid meet" version="1.0">

 <g stroke="null">
  <title stroke="null">Layer 1</title>
  <ellipse stroke="#000" stroke-width="0" ry="510.99998" rx="510.99998" id="svg_3" cy="511.99999" cx="511.99999" fill="#53a7e8"/>
  <g stroke="null" transform="translate(0 1024) scale(0.1 -0.1)" id="svg_1" fill="#000000">
   <path stroke="null" fill="#ffffff" id="svg_2" d="m5638.13525,8932.12551c-266.41805,-87.4345 -285.96224,-380.59722 -42.17429,-628.49973c43.20293,-43.20293 92.5777,-88.46314 109.03596,-100.80683l30.85923,-21.60146l-41.14565,0c-42.17429,-1.02864 -120.35101,28.80195 -132.69471,49.37477c-11.31505,18.51554 -21.60146,14.40098 -85.37721,-37.03108c-97.72091,-77.14809 -176.92628,-158.41073 -436.14384,-442.31569c-268.47534,-293.16272 -349.73799,-369.28217 -511.23464,-477.28949c-126.52286,-83.31993 -226.30105,-123.43694 -552.38029,-225.27241c-605.86963,-188.24133 -720.04879,-230.41561 -1030.69842,-385.74043c-372.36809,-186.18405 -637.7575,-371.33945 -882.57409,-617.18468c-217.04328,-217.04328 -422.77151,-495.80503 -607.92691,-824.97019c-206.75687,-366.19624 -340.48022,-817.7697 -401.17004,-1358.83494c-21.60146,-191.32725 -24.68739,-549.29437 -6.17185,-675.81723c99.77819,-669.64538 336.36565,-1087.27368 727.24928,-1282.7155c295.22001,-148.12432 632.6143,-178.98356 1548.10491,-142.98112c194.41317,8.22913 417.6283,11.31505 495.80503,7.20049c257.16028,-12.34369 588.38273,-47.31749 793.08232,-84.34857c82.29129,-15.42962 91.54906,-15.42962 115.20781,0c29.83059,19.54418 41.14565,55.54662 30.85923,96.69227c-8.22913,34.9738 -85.37721,109.03596 -174.86899,166.63986c-37.03108,23.65875 -65.83303,45.26021 -63.77575,47.31749c6.17185,7.20049 112.12188,-32.91652 176.92628,-65.83303c93.60634,-47.31749 147.09568,-90.52042 182.06948,-146.06704l30.85923,-49.37477l114.17917,-7.20049c102.86411,-7.20049 115.20781,-6.17185 127.5515,11.31505c7.20049,10.28641 13.37233,27.77331 13.37233,40.117c0,41.14565 -94.63498,158.41073 -195.44182,240.70203l-25.71603,21.60146l30.85923,-11.31505c101.83547,-36.00244 238.64474,-136.80927 272.5899,-198.52774c13.37233,-24.68739 19.54418,-27.77331 65.83303,-24.68739l52.4607,3.08592l3.08592,45.26021c5.14321,63.77575 -36.00244,141.95248 -109.03596,206.75687c-63.77575,56.57526 -202.6423,132.69471 -289.04816,158.41073c-144.00976,42.17429 -388.82635,65.83303 -710.79102,68.91896c-93.60634,1.02864 -202.6423,4.11456 -242.75931,8.22913l-73.03352,6.17185l80.23401,113.15052c134.75199,189.26997 241.73067,417.6283 312.70691,663.47353c79.20537,273.61854 63.77575,555.46621 -46.28885,855.82942c-72.00488,197.4991 -228.35833,388.82635 -423.80015,518.43513c-140.92384,93.60634 -356.93847,176.92628 -551.35165,213.95736c-190.29861,36.00244 -190.29861,36.00244 -7.20049,31.88788c109.03596,-2.05728 203.67094,-10.28641 252.01708,-20.57282c462.88851,-101.83547 775.59542,-422.77151 901.08963,-925.77702c20.57282,-79.20537 27.77331,-140.92384 31.88788,-268.47534c8.22913,-227.32969 -16.45826,-385.74043 -89.49178,-577.06768c-34.9738,-92.5777 -163.55394,-333.27973 -237.6161,-444.37297c-27.77331,-42.17429 -50.40342,-79.20537 -50.40342,-83.31993c0,-8.22913 267.4467,-20.57282 453.63074,-20.57282l130.63742,0l316.82147,206.75687c174.86899,114.17917 346.65206,225.27241 381.62586,247.90251l62.74711,40.117l-64.80439,135.78063c-74.06216,155.32481 -105.95004,244.81659 -149.15296,415.57102c-47.31749,186.18405 -39.08836,182.06948 41.14565,-21.60146c26.74467,-68.91896 90.52042,-207.78551 141.95248,-309.62098c105.95004,-210.87143 326.07924,-685.075 370.31081,-798.22552c16.45826,-42.17429 43.20293,-120.35101 57.6039,-173.84035c15.42962,-53.48934 44.23157,-130.63742 62.74711,-170.75443c53.48934,-111.09324 115.20781,-148.12432 279.79039,-168.69715c81.26265,-11.31505 380.59722,-54.51798 462.88851,-67.89031c39.08836,-6.17185 69.9476,8.22913 85.37721,38.05972c18.51554,33.94516 -6.17185,86.40586 -76.11944,161.49666l-62.74711,67.89031l75.0908,-41.14565c41.14565,-21.60146 97.72091,-56.57526 124.46558,-77.14809l50.40342,-38.05972l136.80927,-2.05728c175.89763,-3.08592 170.75443,-4.11456 184.12676,20.57282c24.68739,46.28885 -61.71847,148.12432 -175.89763,205.72823c-31.88788,16.45826 -111.09324,49.37477 -174.86899,73.03352c-151.21025,55.54662 -206.75687,83.31993 -261.27485,133.72335c-59.66119,54.51798 -141.95248,175.89763 -191.32725,280.81903c-100.80683,214.986 -188.24133,640.84343 -201.61366,983.38093c-7.20049,186.18405 7.20049,325.0506 53.48934,493.74774c18.51554,70.97624 37.03108,137.83791 39.08836,149.15296c3.08592,11.31505 3.08592,-90.52042 0,-226.30105c-8.22913,-356.93847 16.45826,-653.18712 80.23401,-977.20908c63.77575,-326.07924 126.52286,-504.03416 208.81415,-593.52594c39.08836,-42.17429 238.64474,-147.09568 393.96955,-206.75687c116.23645,-45.26021 141.95248,-58.63254 203.67094,-105.95004l49.37477,-37.03108l181.04084,17.4869c99.77819,10.28641 189.26997,22.6301 199.55638,27.77331c21.60146,11.31505 22.6301,44.23157 1.02864,85.37721c-30.85923,60.68983 -100.80683,139.89519 -142.98112,165.61122c-60.68983,34.9738 -192.35589,81.26265 -349.73799,123.43694c-146.06704,39.08836 -206.75687,68.91896 -245.84523,120.35101c-105.95004,138.86655 -176.92628,498.89095 -188.24133,953.55033c-7.20049,315.79283 17.4869,579.12496 62.74711,666.55946c8.22913,15.42962 65.83303,100.80683 128.58014,190.29861c228.35833,329.16516 298.30593,513.29193 402.19868,1074.92999c57.6039,307.5637 89.49178,432.02928 131.66607,511.23464c53.48934,98.74955 100.80683,108.00732 607.92691,118.29373c422.77151,8.22913 436.14384,10.28641 589.41137,67.89031c37.03108,14.40098 88.46314,44.23157 113.15052,65.83303c28.80195,24.68739 60.68983,42.17429 86.40586,47.31749c237.6161,43.20293 394.9982,352.82391 497.86231,976.18044c21.60146,129.60878 21.60146,138.86655 6.17185,229.38697c-59.66119,345.62342 -301.39185,572.95311 -867.14448,817.7697c-650.1012,281.84767 -1239.51257,446.43025 -1666.39864,467.00308c-128.58014,6.17185 -136.80927,7.20049 -136.80927,26.74467c0,34.9738 -84.34857,106.97868 -137.83791,118.29373c-114.17917,23.65875 -243.78795,-47.31749 -274.64718,-151.21025c-7.20049,-23.65875 -21.60146,-44.23157 -34.9738,-50.40342c-20.57282,-9.25777 -26.74467,-4.11456 -65.83303,54.51798c-89.49178,136.80927 -212.92872,212.92872 -355.90983,218.07192c-45.26021,1.02864 -93.60634,-1.02864 -108.00732,-6.17185zm1615.99522,-916.51925c78.17673,-14.40098 154.29617,-54.51798 220.1292,-115.20781c30.85923,-27.77331 56.57526,-54.51798 56.57526,-59.66119c0,-11.31505 -112.12188,-58.63254 -158.41073,-66.86167c-80.23401,-13.37233 -177.95492,-7.20049 -231.44426,16.45826c-72.00488,30.85923 -155.32481,124.46558 -155.32481,174.86899c0,20.57282 112.12188,55.54662 191.32725,59.66119c12.34369,0 47.31749,-4.11456 77.14809,-9.25777zm1720.91662,-710.79102c45.26021,-53.48934 32.91652,-70.97624 -51.43206,-70.97624c-59.66119,0 -86.40586,14.40098 -86.40586,46.28885c0,30.85923 34.9738,56.57526 78.17673,56.57526c24.68739,0 40.117,-8.22913 59.66119,-31.88788z"/>
  </g>
 </g>
</svg>